<svg xmlns="http://www.w3.org/2000/svg" version="1.1" xmlns:xlink="http://www.w3.org/1999/xlink" xmlns:svgjs="http://svgjs.dev/svgjs" width="1000" height="1000" viewBox="0 0 1000 1000"><rect width="1000" height="1000" fill="#000000"></rect><g transform="matrix(0.7,0,0,0.7,149.57576442867872,375.6894519261354)"><svg viewBox="0 0 396 141" data-background-color="#ffffff" preserveAspectRatio="xMidYMid meet" height="356" width="1000" xmlns="http://www.w3.org/2000/svg" xmlns:xlink="http://www.w3.org/1999/xlink"><defs></defs><g id="tight-bounds" transform="matrix(1,0,0,1,0.23999612320460528,-0.16377496623229604)"><svg viewBox="0 0 395.52 141.3275499324646" height="141.3275499324646" width="395.52"><g><svg viewBox="0 0 684.0668472169702 244.43135999999998" height="141.3275499324646" width="395.52"><g transform="matrix(1,0,0,1,288.5468472169702,53.774407943525816)"><svg viewBox="0 0 395.52 136.88254411294835" height="136.88254411294835" width="395.52"><g><svg viewBox="0 0 395.52 136.88254411294835" height="136.88254411294835" width="395.52"><g><svg viewBox="0 0 395.52 74.74794086136706" height="74.74794086136706" width="395.52"><g transform="matrix(1,0,0,1,0,0)"><svg width="395.52" viewBox="1.350000023841858 -43.599998474121094 233.3199920654297 44.099998474121094" height="74.74794086136706" data-palette-color="#ea9937"><path d="M5.6 0.5Q3.45 0.5 2.4-1.43 1.35-3.35 1.35-6L1.35-6Q1.35-9.8 3.18-14 5-18.2 7.9-21 10.8-23.8 13.9-23.8L13.9-23.8Q15.25-23.8 16.03-23.28 16.8-22.75 16.8-21.9L16.8-21.9Q16.8-21.1 16.2-20.05L16.2-20.05Q15.85-19.45 15.55-19.45L15.55-19.45Q15.35-19.45 15.2-19.7L15.2-19.7Q14.1-21.15 12.45-21.15L12.45-21.15Q10.45-21.15 8.72-19.48 7-17.8 6-15 5-12.2 5-8.95L5-8.95Q5-3.35 8.1-3.35L8.1-3.35Q9.7-3.35 10.85-4.55 12-5.75 13-7.5L13-7.5Q13.1-7.65 13.25-7.9 13.4-8.15 13.53-8.25 13.65-8.35 13.85-8.35L13.85-8.35Q14-8.35 14.1-8.18 14.2-8 14.2-7.75L14.2-7.75Q14.2-6.3 12.85-4.33 11.5-2.35 9.47-0.93 7.45 0.5 5.6 0.5L5.6 0.5ZM23.15 0.5Q21.05 0.5 21.05-2.65L21.05-2.65Q21.05-4.2 21.55-7.05L21.55-7.05 23.25-17.35Q23.45-19.15 23.45-19.4L23.45-19.4Q23.45-20.15 23.05-20.15L23.05-20.15Q21.9-20.15 20.35-17.15L20.35-17.15Q20.25-16.95 20.02-16.48 19.8-16 19.65-15.88 19.5-15.75 19.35-15.75L19.35-15.75Q19.25-15.75 19.15-15.93 19.05-16.1 19.05-16.35L19.05-16.35Q19.05-17.35 20.07-19.18 21.1-21 22.6-22.4 24.1-23.8 25.45-23.8L25.45-23.8Q26.25-23.8 26.72-23.13 27.2-22.45 27.2-21.3L27.2-21.3Q27.2-20.55 27.1-20.15L27.1-20.15 24.75-5.4Q24.65-4.7 24.65-4.5L24.65-4.5Q24.65-3.45 25.45-3.45L25.45-3.45Q27.1-3.45 29.02-5.68 30.95-7.9 32.42-11 33.9-14.1 34.35-16.45L34.35-16.45 35.05-20.1Q35.45-21.9 36.67-22.85 37.9-23.8 38.95-23.8L38.95-23.8Q39.35-23.8 39.35-23.55L39.35-23.55Q39.35-23.4 39.15-22.98 38.95-22.55 38.85-21.95L38.85-21.95Q38.15-18.85 36.1-7.55L36.1-7.55 35.8-5.95Q35.45-4.2 35.45-3.8L35.45-3.8Q35.45-3.1 35.9-3.1L35.9-3.1Q36.7-3.1 37.67-4.38 38.65-5.65 39.25-7.15L39.25-7.15Q39.55-7.7 39.75-7.7L39.75-7.7Q40.05-7.7 40.05-7.25L40.05-7.25Q40.05-6.7 39.95-6.3L39.95-6.3Q39.6-4.5 38.55-2.95 37.5-1.4 36.2-0.45 34.9 0.5 33.8 0.5L33.8 0.5Q31.85 0.5 31.95-2.6L31.95-2.6Q32.05-3.95 32.55-6.25L32.55-6.25 33-8.7 32.95-8.7Q30.35-4.55 27.65-2.02 24.95 0.5 23.15 0.5L23.15 0.5ZM45.05 0.5Q44.85 0.5 44.72 0.43 44.6 0.35 44.6 0.25L44.6 0.25Q44.6 0.1 44.9-0.4 45.2-0.9 45.35-1.8L45.35-1.8Q45.55-2.85 45.7-3.73 45.85-4.6 46-5.35L46-5.35Q47.25-12.2 47.67-14.93 48.1-17.65 48.05-18.9L48.05-18.9Q48.05-19.55 47.95-19.85 47.85-20.15 47.5-20.15L47.5-20.15Q47.05-20.15 46.35-19.4 45.65-18.65 45.05-17.65L45.05-17.65Q44.8-17.2 44.6-16.88 44.4-16.55 44.27-16.4 44.15-16.25 44-16.25L44-16.25Q43.8-16.25 43.7-16.4 43.6-16.55 43.6-16.8L43.6-16.8Q43.6-17.75 44.67-19.45 45.75-21.15 47.22-22.48 48.7-23.8 49.85-23.8L49.85-23.8Q50.8-23.8 51.17-23.05 51.55-22.3 51.55-20.7L51.55-20.7Q51.55-18.5 50.6-14.75L50.6-14.75 50.7-14.75Q55.45-23.8 59.5-23.8L59.5-23.8Q60.55-23.8 61.12-23.23 61.7-22.65 61.7-21.6L61.7-21.6Q61.7-20.5 61.22-19.35 60.75-18.2 60.07-17.45 59.4-16.7 58.85-16.7L58.85-16.7Q58.5-16.7 58.6-17.15L58.6-17.15Q58.75-17.85 58.75-18.25L58.75-18.25Q58.75-19.45 57.45-19.45L57.45-19.45Q55.9-19.45 54.35-17.65 52.8-15.85 51.62-13.25 50.45-10.65 50-8.5L50-8.5Q49.4-6.2 49.25-3.7L49.25-3.7Q49.15-2.75 48.37-1.78 47.6-0.8 46.6-0.15 45.6 0.5 45.05 0.5L45.05 0.5ZM69.24-26.65Q68.74-26.65 68.79-27.15L68.79-27.15 69.39-30.65Q69.64-32.1 70.47-32.88 71.29-33.65 72.54-33.65L72.54-33.65 72.74-33.65Q73.04-33.65 73.12-33.55 73.19-33.45 73.14-33.15L73.14-33.15 72.59-29.7Q72.39-28.3 71.54-27.48 70.69-26.65 69.44-26.65L69.44-26.65 69.24-26.65ZM66.29 0.5Q64.69 0.5 64.69-1.8L64.69-1.8Q64.69-2.95 64.99-4.45L64.99-4.45 67.39-17.8Q67.59-19.1 67.59-19.4L67.59-19.4Q67.59-20.15 67.14-20.15L67.14-20.15Q66.54-20.15 65.69-19.2 64.84-18.25 63.84-16.2L63.84-16.2Q63.64-15.6 63.34-15.6L63.34-15.6Q63.04-15.6 63.04-16.1L63.04-16.1Q63.04-17.3 64.12-19.18 65.19-21.05 66.77-22.43 68.34-23.8 69.69-23.8L69.69-23.8Q71.24-23.8 71.24-21.6L71.24-21.6Q71.24-20.55 70.94-18.85L70.94-18.85 68.34-4.4 68.24-3.75Q68.24-3.2 68.69-3.2L68.69-3.2Q69.29-3.2 70.14-4.17 70.99-5.15 71.99-7.15L71.99-7.15Q72.24-7.7 72.49-7.7L72.49-7.7Q72.79-7.7 72.79-7.05L72.79-7.05Q72.79-5.9 71.72-4.08 70.64-2.25 69.09-0.88 67.54 0.5 66.29 0.5L66.29 0.5ZM80.59 0.5Q78.49 0.5 77.42-1.13 76.34-2.75 76.34-5.65L76.34-5.65Q76.34-9.7 78.29-13.95 80.24-18.2 83.12-21 85.99-23.8 88.59-23.8L88.59-23.8Q90.54-23.8 91.59-22.08 92.64-20.35 92.64-17.55L92.64-17.55Q92.64-13.8 90.82-9.55 88.99-5.3 86.19-2.4 83.39 0.5 80.59 0.5L80.59 0.5ZM83.04-2.8Q84.69-2.8 86.04-4.48 87.39-6.15 88.19-8.93 88.99-11.7 88.99-14.8L88.99-14.8Q88.99-20.5 86.04-20.5L86.04-20.5Q84.19-20.5 82.82-18.5 81.44-16.5 80.72-13.63 79.99-10.75 79.99-8.25L79.99-8.25Q79.99-5.85 80.72-4.33 81.44-2.8 83.04-2.8L83.04-2.8ZM100.24 0.5Q98.14 0.5 98.14-2.65L98.14-2.65Q98.14-4.2 98.64-7.05L98.64-7.05 100.34-17.35Q100.54-19.15 100.54-19.4L100.54-19.4Q100.54-20.15 100.14-20.15L100.14-20.15Q98.99-20.15 97.44-17.15L97.44-17.15Q97.34-16.95 97.11-16.48 96.89-16 96.74-15.88 96.59-15.75 96.44-15.75L96.44-15.75Q96.34-15.75 96.24-15.93 96.14-16.1 96.14-16.35L96.14-16.35Q96.14-17.35 97.16-19.18 98.19-21 99.69-22.4 101.19-23.8 102.54-23.8L102.54-23.8Q103.34-23.8 103.81-23.13 104.29-22.45 104.29-21.3L104.29-21.3Q104.29-20.55 104.19-20.15L104.19-20.15 101.84-5.4Q101.74-4.7 101.74-4.5L101.74-4.5Q101.74-3.45 102.54-3.45L102.54-3.45Q104.19-3.45 106.11-5.68 108.04-7.9 109.51-11 110.99-14.1 111.44-16.45L111.44-16.45 112.14-20.1Q112.54-21.9 113.76-22.85 114.99-23.8 116.04-23.8L116.04-23.8Q116.44-23.8 116.44-23.55L116.44-23.55Q116.44-23.4 116.24-22.98 116.04-22.55 115.94-21.95L115.94-21.95Q115.24-18.85 113.19-7.55L113.19-7.55 112.89-5.95Q112.54-4.2 112.54-3.8L112.54-3.8Q112.54-3.1 112.99-3.1L112.99-3.1Q113.79-3.1 114.76-4.38 115.74-5.65 116.34-7.15L116.34-7.15Q116.64-7.7 116.84-7.7L116.84-7.7Q117.14-7.7 117.14-7.25L117.14-7.25Q117.14-6.7 117.04-6.3L117.04-6.3Q116.69-4.5 115.64-2.95 114.59-1.4 113.29-0.45 111.99 0.5 110.89 0.5L110.89 0.5Q108.94 0.5 109.04-2.6L109.04-2.6Q109.14-3.95 109.64-6.25L109.64-6.25 110.09-8.7 110.04-8.7Q107.44-4.55 104.74-2.02 102.04 0.5 100.24 0.5L100.24 0.5ZM123.49 0.5Q121.94 0.5 120.84-0.35 119.74-1.2 119.39-2.6L119.39-2.6Q119.29-3 119.71-3.88 120.14-4.75 120.84-5.6L120.84-5.6Q121.24-6.05 121.49-6.05L121.49-6.05Q121.74-6.05 121.89-5.65L121.89-5.65Q123.39-2.15 126.04-2.15L126.04-2.15Q127.39-2.15 128.16-2.98 128.94-3.8 128.94-5.2L128.94-5.2Q128.94-7.1 126.79-10.1L126.79-10.1 125.74-11.6Q124.54-13.3 124.06-14.4 123.59-15.5 123.59-16.75L123.59-16.75Q123.59-18.75 124.66-20.35 125.74-21.95 127.49-22.88 129.24-23.8 131.14-23.8L131.14-23.8Q134.74-23.8 134.74-21.35L134.74-21.35Q134.74-20.45 134.09-19.55L134.09-19.55Q133.74-18.95 133.49-18.95L133.49-18.95Q133.19-18.95 132.94-19.55L132.94-19.55Q132.39-20.5 131.61-20.93 130.84-21.35 129.64-21.35L129.64-21.35Q128.24-21.35 127.39-20.6 126.54-19.85 126.54-18.7L126.54-18.7Q126.54-18.05 126.96-17.23 127.39-16.4 128.59-14.7L128.59-14.7 129.64-13.25Q131.04-11.4 131.59-10.08 132.14-8.75 132.14-7.3L132.14-7.3Q132.14-5.45 130.94-3.63 129.74-1.8 127.74-0.65 125.74 0.5 123.49 0.5L123.49 0.5ZM139.03 0.5Q138.58 0.5 138.58 0.2L138.58 0.2Q138.58 0 138.81-0.68 139.03-1.35 139.43-3L139.43-3Q140.43-7.15 141.83-16.85L141.83-16.85Q142.13-18.75 142.13-19.5L142.13-19.5Q142.13-20.15 141.83-20.15L141.83-20.15Q140.98-20.15 139.28-17.15L139.28-17.15Q139.03-16.7 138.83-16.38 138.63-16.05 138.51-15.9 138.38-15.75 138.23-15.75L138.23-15.75Q137.83-15.75 137.83-16.25L137.83-16.25Q137.83-17.25 138.93-19.1 140.03-20.95 141.53-22.38 143.03-23.8 144.23-23.8L144.23-23.8Q145.03-23.8 145.38-23.1 145.73-22.4 145.73-21.35L145.73-21.35Q145.73-19.7 144.93-14.9L144.93-14.9 144.98-14.9Q147.28-18.95 150.03-21.38 152.78-23.8 154.78-23.8L154.78-23.8Q156.88-23.8 156.88-20.85L156.88-20.85Q156.88-19.75 156.43-17.15L156.43-17.15 155.28-11.15Q154.03-4.8 154.03-3.95L154.03-3.95Q154.03-3.6 154.21-3.33 154.38-3.05 154.78-3.05L154.78-3.05Q156.13-3.05 157.88-7.15L157.88-7.15Q158.03-7.7 158.38-7.7L158.38-7.7Q158.68-7.7 158.68-7.1L158.68-7.1Q158.68-6.65 158.63-6.3L158.63-6.3Q158.28-4.5 157.18-2.93 156.08-1.35 154.73-0.43 153.38 0.5 152.28 0.5L152.28 0.5Q151.23 0.5 150.86-0.38 150.48-1.25 150.48-2.3L150.48-2.3Q150.48-4.55 151.73-10.4L151.73-10.4Q152.93-16.1 153.03-18.3L153.03-18.3Q153.08-19.2 152.91-19.58 152.73-19.95 152.08-19.95L152.08-19.95Q150.53-19.95 148.76-17.9 146.98-15.85 145.58-12.88 144.18-9.9 143.73-7.45L143.73-7.45 142.93-3.1Q142.63-1.8 141.33-0.65 140.03 0.5 139.03 0.5L139.03 0.5ZM167.03 0.5Q164.78 0.5 163.46-1.23 162.13-2.95 162.13-6L162.13-6Q162.13-9.7 163.91-13.93 165.68-18.15 168.48-20.98 171.28-23.8 174.13-23.8L174.13-23.8Q176.73-23.8 176.73-20.65L176.73-20.65Q176.73-18.1 175.23-15.65 173.73-13.2 171.21-11.33 168.68-9.45 165.68-8.45L165.68-8.45Q165.68-5.75 166.56-4.55 167.43-3.35 169.13-3.35L169.13-3.35Q170.93-3.35 172.43-4.5 173.93-5.65 174.98-7.65L174.98-7.65Q175.13-7.95 175.28-8.15 175.43-8.35 175.68-8.35L175.68-8.35Q176.08-8.35 176.08-7.75L176.08-7.75Q176.08-6.4 174.73-4.4 173.38-2.4 171.28-0.95 169.18 0.5 167.03 0.5L167.03 0.5ZM167.28-11.1Q168.58-11.1 170.06-12.03 171.53-12.95 172.53-14.55 173.53-16.15 173.53-18.15L173.53-18.15Q173.53-20.5 171.88-20.5L171.88-20.5Q170.53-20.5 169.31-19.05 168.08-17.6 167.26-15.45 166.43-13.3 166.13-11.3L166.13-11.3Q166.43-11.1 167.28-11.1L167.28-11.1ZM181.08 0.5Q180.88 0.5 180.75 0.43 180.63 0.35 180.63 0.25L180.63 0.25Q180.63 0.1 180.93-0.4 181.23-0.9 181.38-1.8L181.38-1.8Q181.58-2.85 181.73-3.73 181.88-4.6 182.03-5.35L182.03-5.35Q183.28-12.2 183.7-14.93 184.13-17.65 184.08-18.9L184.08-18.9Q184.08-19.55 183.98-19.85 183.88-20.15 183.53-20.15L183.53-20.15Q183.08-20.15 182.38-19.4 181.68-18.65 181.08-17.65L181.08-17.65Q180.83-17.2 180.63-16.88 180.43-16.55 180.3-16.4 180.18-16.25 180.03-16.25L180.03-16.25Q179.83-16.25 179.73-16.4 179.63-16.55 179.63-16.8L179.63-16.8Q179.63-17.75 180.7-19.45 181.78-21.15 183.25-22.48 184.73-23.8 185.88-23.8L185.88-23.8Q186.83-23.8 187.2-23.05 187.58-22.3 187.58-20.7L187.58-20.7Q187.58-18.5 186.63-14.75L186.63-14.75 186.73-14.75Q191.48-23.8 195.53-23.8L195.53-23.8Q196.58-23.8 197.15-23.23 197.73-22.65 197.73-21.6L197.73-21.6Q197.73-20.5 197.25-19.35 196.78-18.2 196.1-17.45 195.43-16.7 194.88-16.7L194.88-16.7Q194.53-16.7 194.63-17.15L194.63-17.15Q194.78-17.85 194.78-18.25L194.78-18.25Q194.78-19.45 193.48-19.45L193.48-19.45Q191.93-19.45 190.38-17.65 188.83-15.85 187.65-13.25 186.48-10.65 186.03-8.5L186.03-8.5Q185.43-6.2 185.28-3.7L185.28-3.7Q185.18-2.75 184.4-1.78 183.63-0.8 182.63-0.15 181.63 0.5 181.08 0.5L181.08 0.5ZM200.18 0.5Q197.63 0.5 197.63-4.4L197.63-4.4Q197.63-8.95 199.63-13.48 201.63-18 205.03-20.9 208.43-23.8 212.33-23.8L212.33-23.8 212.83-23.8Q214.48-30.7 215.93-34.2 217.38-37.7 219.78-40L219.78-40Q221.38-41.5 222.68-42.05 223.98-42.6 226.23-43.05L226.23-43.05Q227.23-43.25 227.65-43.43 228.08-43.6 228.23-43.6L228.23-43.6Q228.58-43.6 228.58-43.2L228.58-43.2Q228.58-42.55 227.63-41.75L227.63-41.75Q227.13-41.3 226.7-41.15 226.28-41 225.88-40.95 225.48-40.9 225.28-40.85L225.28-40.85Q222.68-40.5 220.88-38.25L220.88-38.25Q219.53-36.5 218.5-33.25 217.48-30 215.73-21.9L215.73-21.9Q212.83-7.9 212.48-5.15L212.48-5.15Q212.43-4.8 212.43-4.3L212.43-4.3Q212.43-3.2 213.08-3.2L213.08-3.2Q213.88-3.2 214.6-4.28 215.33-5.35 216.13-7.15L216.13-7.15Q216.43-7.7 216.68-7.7L216.68-7.7Q216.98-7.7 216.98-7.15L216.98-7.15 216.88-6.3Q216.48-4.55 215.4-2.98 214.33-1.4 213-0.45 211.68 0.5 210.58 0.5L210.58 0.5Q208.98 0.5 208.98-2.15L208.98-2.15Q208.98-3.15 209.18-4.55L209.18-4.55 210.03-8.95 209.98-8.95Q208.13-5.75 205.28-2.63 202.43 0.5 200.18 0.5L200.18 0.5ZM202.53-3.6Q203.93-3.6 205.75-5.78 207.58-7.95 209.15-11.1 210.73-14.25 211.33-16.75L211.33-16.75 212.13-19.95Q210.63-20.95 208.98-20.95L208.98-20.95Q206.83-20.95 205.05-18.48 203.28-16 202.28-12.48 201.28-8.95 201.28-6.1L201.28-6.1Q201.28-4.85 201.55-4.23 201.83-3.6 202.53-3.6L202.53-3.6ZM223.42 0.5Q221.87 0.5 220.77-0.35 219.67-1.2 219.32-2.6L219.32-2.6Q219.22-3 219.65-3.88 220.07-4.75 220.77-5.6L220.77-5.6Q221.17-6.05 221.42-6.05L221.42-6.05Q221.67-6.05 221.82-5.65L221.82-5.65Q223.32-2.15 225.97-2.15L225.97-2.15Q227.32-2.15 228.1-2.98 228.87-3.8 228.87-5.2L228.87-5.2Q228.87-7.1 226.72-10.1L226.72-10.1 225.67-11.6Q224.47-13.3 224-14.4 223.52-15.5 223.52-16.75L223.52-16.75Q223.52-18.75 224.6-20.35 225.67-21.95 227.42-22.88 229.17-23.8 231.07-23.8L231.07-23.8Q234.67-23.8 234.67-21.35L234.67-21.35Q234.67-20.45 234.02-19.55L234.02-19.55Q233.67-18.95 233.42-18.95L233.42-18.95Q233.12-18.95 232.87-19.55L232.87-19.55Q232.32-20.5 231.55-20.93 230.77-21.35 229.57-21.35L229.57-21.35Q228.17-21.35 227.32-20.6 226.47-19.85 226.47-18.7L226.47-18.7Q226.47-18.05 226.9-17.23 227.32-16.4 228.52-14.7L228.52-14.7 229.57-13.25Q230.97-11.4 231.52-10.08 232.07-8.75 232.07-7.3L232.07-7.3Q232.07-5.45 230.87-3.63 229.67-1.8 227.67-0.65 225.67 0.5 223.42 0.5L223.42 0.5Z" opacity="1" transform="matrix(1,0,0,1,0,0)" fill="#ffffff" class="undefined-text-0" data-fill-palette-color="primary" id="text-0"></path></svg></g></svg></g><g transform="matrix(1,0,0,1,0,92.39413574815515)"><svg viewBox="0 0 232.20979199999996 44.48840836479321" height="44.48840836479321" width="232.20979199999996"><g transform="matrix(1,0,0,1,0,0)"><svg width="232.20979199999996" viewBox="-8.25 -39.11000061035156 276.239990234375 52.93000030517578" height="44.48840836479321" data-palette-color="#ea9937"><path d="M9.77-33.59L9.77-33.59Q9.77-32.91 9.38-32.35 8.98-31.79 8.4-31.4 7.81-31.01 7.13-30.79 6.45-30.57 5.86-30.57L5.86-30.57Q4.88-30.57 4.15-31.05 3.42-31.54 3.42-32.57L3.42-32.57Q3.42-33.3 3.78-33.86 4.15-34.42 4.71-34.79 5.27-35.16 5.93-35.35 6.59-35.55 7.23-35.55L7.23-35.55Q8.15-35.55 8.96-35.08 9.77-34.62 9.77-33.59ZM10.69-12.4L10.69-12.4Q10.69-10.11 10.57-7.3 10.45-4.49 9.99-1.66 9.52 1.17 8.54 3.71 7.57 6.25 5.81 7.96L5.81 7.96Q4.83 8.89 3.52 9.91 2.2 10.94 0.71 11.82-0.78 12.7-2.29 13.26-3.81 13.82-5.18 13.82L-5.18 13.82Q-6.74 13.82-7.5 12.96-8.25 12.11-8.25 10.6L-8.25 10.6Q-8.25 9.03-7.42 8.25-6.59 7.47-5.37 6.88-4.15 6.3-2.71 5.59-1.27 4.88-0.05 3.47 1.17 2.05 2-0.37 2.83-2.78 2.83-6.74L2.83-6.74Q2.83-9.23 2.73-11.62 2.64-14.01 2.44-16.5L2.44-16.5Q2.34-17.92 2.25-19.36 2.15-20.8 2.15-22.22L2.15-22.22Q2.15-23.1 2.39-24.07 2.64-25.05 3.13-25.85 3.61-26.66 4.37-27.17 5.13-27.69 6.2-27.69L6.2-27.69Q7.42-27.69 8.23-26.76 9.03-25.83 9.55-24.39 10.06-22.95 10.28-21.17 10.5-19.38 10.6-17.7 10.69-16.02 10.69-14.6 10.69-13.18 10.69-12.4ZM23.92 1.42L23.92 1.42Q21.43 1.42 19.58 0.1 17.72-1.22 16.45-3.27 15.18-5.32 14.55-7.84 13.91-10.35 13.91-12.79L13.91-12.79Q13.91-15.38 14.55-18.14 15.18-20.9 16.5-23.17 17.82-25.44 19.87-26.88 21.92-28.32 24.75-28.32L24.75-28.32Q27.49-28.32 29.42-26.83 31.35-25.34 32.52-23.12 33.69-20.9 34.18-18.26 34.67-15.63 34.52-13.28L34.52-13.28Q34.37-10.69 33.71-8.06 33.05-5.42 31.78-3.32 30.52-1.22 28.56 0.1 26.61 1.42 23.92 1.42ZM24.41-20.65L24.41-20.65Q23.68-20.65 23.12-19.87 22.56-19.09 22.19-17.97 21.82-16.85 21.63-15.6 21.43-14.36 21.43-13.43L21.43-13.43Q21.43-12.26 21.65-10.89 21.87-9.52 22.26-8.37 22.65-7.23 23.22-6.47 23.78-5.71 24.51-5.71L24.51-5.71Q25.29-5.71 25.85-6.45 26.41-7.18 26.76-8.3 27.1-9.42 27.24-10.77 27.39-12.11 27.39-13.28L27.39-13.28Q27.39-14.36 27.19-15.65 27-16.94 26.63-18.07 26.27-19.19 25.71-19.92 25.14-20.65 24.41-20.65ZM45.06-34.08L45.06-34.08Q45.06-33.4 44.7-32.86 44.33-32.32 43.75-31.91 43.16-31.49 42.48-31.27 41.79-31.05 41.21-31.05L41.21-31.05Q40.23-31.05 39.5-31.54 38.76-32.03 38.76-33.06L38.76-33.06Q38.76-33.79 39.13-34.35 39.5-34.91 40.03-35.28 40.57-35.64 41.25-35.84 41.94-36.04 42.57-36.04L42.57-36.04Q43.5-36.04 44.28-35.6 45.06-35.16 45.06-34.08ZM45.45-17.48L45.45-17.48Q45.45-16.8 45.45-16.04 45.45-15.28 45.41-14.6L45.41-14.6Q45.36-13.77 45.36-12.38 45.36-10.99 45.26-9.38 45.16-7.76 44.94-6.1 44.72-4.44 44.23-3.08 43.75-1.71 42.94-0.85 42.13 0 40.91 0.05L40.91 0.05Q39.99 0.1 39.35-0.68 38.72-1.46 38.3-2.71 37.89-3.96 37.69-5.49 37.5-7.03 37.4-8.47 37.3-9.91 37.3-11.13 37.3-12.35 37.3-12.94L37.3-12.94Q37.3-13.72 37.3-15.16 37.3-16.6 37.4-18.26 37.5-19.92 37.76-21.63 38.03-23.34 38.54-24.76 39.06-26.17 39.89-27.05 40.72-27.93 41.99-27.93L41.99-27.93Q43.31-27.93 43.99-26.61 44.67-25.29 45.01-23.54 45.36-21.78 45.41-20.04 45.45-18.31 45.45-17.48ZM62.79 1.37L62.79 1.37Q61.96 1.37 61.47 0.61 60.98-0.15 60.73-1.12 60.49-2.1 60.42-3.1 60.34-4.1 60.34-4.64L60.34-4.64Q60.34-6.1 60.51-7.57 60.69-9.03 60.91-10.5 61.13-11.96 61.3-13.43 61.47-14.89 61.47-16.36L61.47-16.36Q61.47-16.94 61.42-17.63 61.37-18.31 61.2-18.92 61.03-19.53 60.64-19.92 60.25-20.31 59.61-20.31L59.61-20.31Q59.17-20.31 58.64-19.6 58.1-18.9 57.63-17.99 57.17-17.09 56.85-16.19 56.54-15.28 56.54-14.84L56.54-14.84Q56.54-13.77 56.56-12.67 56.58-11.57 56.58-10.45L56.58-10.45 56.58-7.62Q56.54-6.74 56.44-5.81 56.34-4.88 56.14-4L56.14-4Q56-3.13 55.71-2.32 55.41-1.51 54.95-0.9 54.48-0.29 53.85 0.1 53.22 0.49 52.34 0.49L52.34 0.49Q51.36 0.49 50.72-0.15 50.09-0.78 49.7-1.78 49.31-2.78 49.14-4.03 48.97-5.27 48.89-6.47 48.82-7.67 48.85-8.67 48.87-9.67 48.87-10.25L48.87-10.25 48.87-12.55Q48.87-14.4 48.8-16.21 48.72-18.02 48.72-19.82L48.72-19.82Q48.72-20.8 48.75-22.31 48.77-23.83 49.11-25.27 49.46-26.71 50.24-27.73 51.02-28.76 52.53-28.76L52.53-28.76Q53.22-28.76 53.75-28.32 54.29-27.88 54.7-27.25 55.12-26.61 55.39-25.88 55.66-25.15 55.8-24.61L55.8-24.61Q56.29-25.29 56.95-25.93 57.61-26.56 58.44-27.05 59.27-27.54 60.3-27.83 61.32-28.13 62.64-28.13L62.64-28.13Q65.13-28.13 66.52-26.93 67.91-25.73 68.57-23.95 69.23-22.17 69.38-20.12 69.52-18.07 69.52-16.41L69.52-16.41Q69.52-15.58 69.38-13.94 69.23-12.3 68.91-10.33 68.6-8.35 68.06-6.27 67.52-4.2 66.79-2.49 66.06-0.78 65.06 0.29 64.06 1.37 62.79 1.37ZM95.4 1.76L95.4 1.76Q91.93 1.76 90 0.85 88.07-0.05 87.12-1.71 86.17-3.37 85.97-5.71 85.78-8.06 85.78-10.94L85.78-10.94Q85.78-13.23 85.93-15.55 86.07-17.87 86.36-20.51L86.36-20.51Q85.68-20.51 85.29-20.48 84.9-20.46 84.66-20.46L84.66-20.46Q83.09-20.46 81.95-21.14 80.8-21.83 80.8-23.24L80.8-23.24Q80.8-24.12 81.46-24.8 82.12-25.49 83.14-25.98 84.17-26.46 85.36-26.76 86.56-27.05 87.63-27.15L87.63-27.15Q87.63-28.52 87.83-30.18 88.02-31.84 88.54-33.28 89.05-34.72 89.93-35.69 90.81-36.67 92.18-36.67L92.18-36.67Q92.96-36.67 93.57-36.21 94.18-35.74 94.57-35.03 94.96-34.33 95.15-33.45 95.35-32.57 95.35-31.74L95.35-31.74Q95.35-30.76 95.2-29.74 95.06-28.71 94.67-27.2L94.67-27.2Q95.5-27.29 95.79-27.32 96.08-27.34 96.33-27.34L96.33-27.34Q97.16-27.34 98.06-27.2 98.96-27.05 99.72-26.71 100.48-26.37 100.96-25.81 101.45-25.24 101.45-24.46L101.45-24.46Q101.45-23.58 100.74-22.9 100.04-22.22 98.96-21.73 97.89-21.24 96.67-20.97 95.45-20.7 94.37-20.61L94.37-20.61Q94.08-18.6 93.96-16.92 93.84-15.23 93.69-13.53L93.69-13.53Q93.59-12.7 93.52-11.84 93.44-10.99 93.44-10.11L93.44-10.11Q93.44-9.47 93.49-8.62 93.54-7.76 93.84-6.98 94.13-6.2 94.76-5.64 95.4-5.08 96.52-5.08L96.52-5.08Q97.2-5.08 97.94-5.2 98.67-5.32 99.4-5.32L99.4-5.32Q100.67-5.32 101.23-4.44 101.79-3.56 101.79-2.2L101.79-2.2Q101.79-1.17 101.18-0.42 100.57 0.34 99.65 0.81 98.72 1.27 97.57 1.51 96.42 1.76 95.4 1.76ZM124.94-12.65L124.94-12.65Q124.94-11.82 124.91-10.18 124.89-8.54 124.77-6.76 124.64-4.98 124.45-3.39 124.25-1.81 123.96-1.07L123.96-1.07Q123.57-0.15 122.93 0.54 122.3 1.22 121.23 1.22L121.23 1.22Q119.57 1.22 118.83-0.1 118.1-1.42 117.86-3.37 117.61-5.32 117.66-7.62 117.71-9.91 117.61-11.87 117.51-13.82 117.07-15.14 116.64-16.46 115.46-16.46L115.46-16.46Q113.85-16.46 113-15.94 112.14-15.43 111.78-14.6 111.41-13.77 111.34-12.7 111.26-11.62 111.17-10.45L111.17-10.45Q111.07-9.33 111.02-7.42 110.97-5.52 110.58-3.66 110.19-1.81 109.29-0.46 108.38 0.88 106.63 0.88L106.63 0.88Q105.55 0.88 104.89 0.05 104.23-0.78 103.84-2.1 103.45-3.42 103.28-5.03 103.11-6.64 103.09-8.18 103.06-9.72 103.09-10.99 103.11-12.26 103.11-12.89L103.11-12.89Q103.11-13.87 103.18-16.11 103.26-18.36 103.5-21.12 103.74-23.88 104.14-26.81 104.53-29.74 105.16-32.15 105.8-34.57 106.7-36.08 107.6-37.6 108.82-37.55L108.82-37.55Q109.6-37.5 110.17-36.87 110.73-36.23 111.09-35.23 111.46-34.23 111.7-33.06 111.95-31.88 112.07-30.74 112.19-29.59 112.22-28.61 112.24-27.64 112.24-27.1L112.24-27.1Q112.24-25.83 112.19-24.56 112.14-23.29 112.05-22.02L112.05-22.02Q113.17-23.54 115.05-24.51 116.93-25.49 118.83-25.49L118.83-25.49Q121.27-25.49 122.52-24.15 123.76-22.8 124.3-20.83 124.84-18.85 124.89-16.63 124.94-14.4 124.94-12.65ZM148.86-8.69L148.86-8.69Q148.86-7.03 147.81-5.44 146.76-3.86 145.17-2.61 143.59-1.37 141.78-0.61 139.97 0.15 138.46 0.15L138.46 0.15Q135.87 0.15 133.84-1.15 131.82-2.44 130.45-4.44 129.08-6.45 128.38-8.86 127.67-11.28 127.67-13.57L127.67-13.57Q127.67-16.02 128.35-18.8 129.04-21.58 130.43-23.93 131.82-26.27 133.94-27.83 136.07-29.39 139-29.39L139-29.39Q140.66-29.39 142.17-28.83 143.68-28.27 144.81-27.25 145.93-26.22 146.61-24.8 147.3-23.39 147.3-21.63L147.3-21.63Q147.3-19.34 146.32-17.33 145.34-15.33 143.73-13.87 142.12-12.4 140.02-11.5 137.92-10.6 135.72-10.5L135.72-10.5Q135.92-9.08 136.87-8.45 137.82-7.81 139.14-7.81L139.14-7.81Q140.12-7.81 141.05-8.3 141.97-8.79 142.85-9.4 143.73-10.01 144.59-10.5 145.44-10.99 146.32-10.99L146.32-10.99Q147.3-10.99 148.08-10.35 148.86-9.72 148.86-8.69ZM140.95-20.65L140.95-20.65Q140.95-21.29 140.61-21.97 140.27-22.66 139.53-22.66L139.53-22.66Q138.46-22.66 137.73-22.09 136.99-21.53 136.51-20.68 136.02-19.82 135.75-18.85 135.48-17.87 135.43-17.04L135.43-17.04Q136.12-17.19 137.07-17.43 138.02-17.68 138.87-18.09 139.73-18.51 140.34-19.14 140.95-19.78 140.95-20.65ZM176.44 1.37L176.44 1.37Q175.61 1.37 175.12 0.61 174.64-0.15 174.39-1.12 174.15-2.1 174.07-3.1 174-4.1 174-4.64L174-4.64Q174-6.1 174.17-7.57 174.34-9.03 174.56-10.5 174.78-11.96 174.95-13.43 175.12-14.89 175.12-16.36L175.12-16.36Q175.12-16.94 175.08-17.63 175.03-18.31 174.86-18.92 174.68-19.53 174.29-19.92 173.9-20.31 173.27-20.31L173.27-20.31Q172.83-20.31 172.29-19.6 171.75-18.9 171.29-17.99 170.83-17.09 170.51-16.19 170.19-15.28 170.19-14.84L170.19-14.84Q170.19-13.77 170.22-12.67 170.24-11.57 170.24-10.45L170.24-10.45 170.24-7.62Q170.19-6.74 170.09-5.81 170-4.88 169.8-4L169.8-4Q169.66-3.13 169.36-2.32 169.07-1.51 168.61-0.9 168.14-0.29 167.51 0.1 166.87 0.49 165.99 0.49L165.99 0.49Q165.02 0.49 164.38-0.15 163.75-0.78 163.36-1.78 162.97-2.78 162.79-4.03 162.62-5.27 162.55-6.47 162.48-7.67 162.5-8.67 162.53-9.67 162.53-10.25L162.53-10.25 162.53-12.55Q162.53-14.4 162.45-16.21 162.38-18.02 162.38-19.82L162.38-19.82Q162.38-20.8 162.4-22.31 162.43-23.83 162.77-25.27 163.11-26.71 163.89-27.73 164.67-28.76 166.19-28.76L166.19-28.76Q166.87-28.76 167.41-28.32 167.95-27.88 168.36-27.25 168.78-26.61 169.04-25.88 169.31-25.15 169.46-24.61L169.46-24.61Q169.95-25.29 170.61-25.93 171.27-26.56 172.1-27.05 172.93-27.54 173.95-27.83 174.98-28.13 176.3-28.13L176.3-28.13Q178.79-28.13 180.18-26.93 181.57-25.73 182.23-23.95 182.89-22.17 183.03-20.12 183.18-18.07 183.18-16.41L183.18-16.41Q183.18-15.58 183.03-13.94 182.89-12.3 182.57-10.33 182.25-8.35 181.72-6.27 181.18-4.2 180.45-2.49 179.71-0.78 178.71 0.29 177.71 1.37 176.44 1.37ZM206.37-8.69L206.37-8.69Q206.37-7.03 205.32-5.44 204.27-3.86 202.68-2.61 201.1-1.37 199.29-0.61 197.48 0.15 195.97 0.15L195.97 0.15Q193.38 0.15 191.36-1.15 189.33-2.44 187.96-4.44 186.6-6.45 185.89-8.86 185.18-11.28 185.18-13.57L185.18-13.57Q185.18-16.02 185.86-18.8 186.55-21.58 187.94-23.93 189.33-26.27 191.45-27.83 193.58-29.39 196.51-29.39L196.51-29.39Q198.17-29.39 199.68-28.83 201.2-28.27 202.32-27.25 203.44-26.22 204.13-24.8 204.81-23.39 204.81-21.63L204.81-21.63Q204.81-19.34 203.83-17.33 202.86-15.33 201.24-13.87 199.63-12.4 197.53-11.5 195.43-10.6 193.24-10.5L193.24-10.5Q193.43-9.08 194.38-8.45 195.34-7.81 196.65-7.81L196.65-7.81Q197.63-7.81 198.56-8.3 199.49-8.79 200.37-9.4 201.24-10.01 202.1-10.5 202.95-10.99 203.83-10.99L203.83-10.99Q204.81-10.99 205.59-10.35 206.37-9.72 206.37-8.69ZM198.46-20.65L198.46-20.65Q198.46-21.29 198.12-21.97 197.78-22.66 197.05-22.66L197.05-22.66Q195.97-22.66 195.24-22.09 194.51-21.53 194.02-20.68 193.53-19.82 193.26-18.85 192.99-17.87 192.94-17.04L192.94-17.04Q193.63-17.19 194.58-17.43 195.53-17.68 196.39-18.09 197.24-18.51 197.85-19.14 198.46-19.78 198.46-20.65ZM225.27-18.26L225.27-18.26Q224.58-18.21 224.09-18.38 223.61-18.55 223.12-18.75L223.12-18.75Q222.68-18.95 222.24-19.12 221.8-19.29 221.26-19.24L221.26-19.24Q220.29-19.19 219.53-18.7 218.77-18.21 218.16-17.48 217.55-16.75 217.11-15.84 216.67-14.94 216.43-14.06L216.43-14.06Q216.28-13.48 216.21-12.28 216.13-11.08 216.13-9.72L216.13-9.72Q216.09-8.3 216.09-7.03 216.09-5.76 215.99-5.03L215.99-5.03Q215.94-4.25 215.74-3.2 215.55-2.15 215.13-1.22 214.72-0.29 214.04 0.34 213.35 0.98 212.28 0.98L212.28 0.98Q211.45 0.98 210.84 0.49 210.23 0 209.81-0.81 209.4-1.61 209.13-2.69 208.86-3.76 208.71-4.88L208.71-4.88Q208.57-6.05 208.49-7.23 208.42-8.4 208.4-9.45 208.37-10.5 208.4-11.38 208.42-12.26 208.42-12.79L208.42-12.79Q208.37-14.5 208.25-16.24 208.13-17.97 208.13-19.68L208.13-19.68Q208.13-20.75 208.22-22.07 208.32-23.39 208.76-24.54 209.2-25.68 210.06-26.46 210.91-27.25 212.42-27.25L212.42-27.25Q213.25-27.25 213.84-26.71 214.43-26.17 214.79-25.39 215.16-24.61 215.35-23.73 215.55-22.85 215.6-22.12L215.6-22.12Q216.77-24.02 218.23-25.22 219.7-26.42 222.04-26.51L222.04-26.51Q223.21-26.56 224.36-26.29 225.51-26.03 226.46-25.42 227.41-24.8 228.02-23.83 228.63-22.85 228.68-21.53L228.68-21.53Q228.78-19.97 227.76-19.14 226.73-18.31 225.27-18.26ZM250.46-32.13L250.46-32.13Q250.46-28.56 250.19-25.05 249.92-21.53 249.92-17.97L249.92-17.97Q249.92-15.09 250.09-12.26 250.26-9.42 250.26-6.54L250.26-6.54Q250.26-5.76 250.21-4.66 250.17-3.56 249.9-2.54 249.63-1.51 249.02-0.78 248.41-0.05 247.28-0.05L247.28-0.05Q245.82-0.05 244.87-1.15 243.92-2.25 243.67-3.61L243.67-3.61Q242.74-1.86 240.99-0.63 239.23 0.59 237.18 0.59L237.18 0.59Q234.98 0.59 233.39-0.93 231.81-2.44 230.76-4.59 229.71-6.74 229.19-9.08 228.68-11.43 228.68-13.13L228.68-13.13Q228.68-14.36 228.83-15.92 228.97-17.48 229.34-19.09 229.71-20.7 230.29-22.24 230.88-23.78 231.78-25 232.68-26.22 233.93-26.95 235.18-27.69 236.79-27.69L236.79-27.69Q238.54-27.69 240.16-26.66 241.77-25.63 242.6-24.12L242.6-24.12 243.04-31.88Q243.09-32.81 243.18-34.06 243.28-35.3 243.6-36.43 243.92-37.55 244.6-38.33 245.28-39.11 246.6-39.11L246.6-39.11Q248.02-39.11 248.8-38.43 249.58-37.74 249.95-36.69 250.31-35.64 250.39-34.42 250.46-33.2 250.46-32.13ZM242.5-10.06L242.5-10.45Q242.5-11.57 242.45-12.65 242.4-13.72 242.45-14.84L242.45-14.84Q242.16-15.48 241.77-16.24 241.38-16.99 240.81-17.65 240.25-18.31 239.57-18.75 238.89-19.19 238.1-19.19L238.1-19.19Q237.23-19.19 236.69-18.65 236.15-18.12 235.91-17.36 235.66-16.6 235.59-15.72 235.52-14.84 235.52-14.21L235.52-14.21Q235.52-13.62 235.61-12.48 235.71-11.33 235.98-10.16 236.25-8.98 236.74-8.11 237.23-7.23 238.06-7.23L238.06-7.23Q238.69-7.23 239.33-7.5 239.96-7.76 240.52-8.18 241.08-8.59 241.6-9.11 242.11-9.62 242.5-10.06L242.5-10.06ZM267.99-26.86L267.99-26.86Q267.99-25.44 267.03-24.76 266.08-24.07 264.91-23.46 263.74-22.85 262.78-22.02 261.83-21.19 261.83-19.53L261.83-19.53Q261.83-18.65 262.25-18.02 262.66-17.38 263.27-16.87 263.88-16.36 264.62-15.82 265.35-15.28 265.96-14.6 266.57-13.92 266.98-12.94 267.4-11.96 267.4-10.55L267.4-10.55Q267.4-8.5 266.35-6.52 265.3-4.54 263.66-3 262.03-1.46 259.98-0.54 257.93 0.39 255.92 0.39L255.92 0.39Q255.09 0.39 254.26 0.27 253.43 0.15 252.78-0.2 252.12-0.54 251.68-1.15 251.24-1.76 251.24-2.73L251.24-2.73Q251.24-4.1 251.77-4.86 252.31-5.62 253.14-6.05 253.97-6.49 254.92-6.74 255.88-6.98 256.71-7.35 257.54-7.71 258.07-8.3 258.61-8.89 258.61-9.96L258.61-9.96Q258.61-10.99 257.8-12.08 257-13.18 256.02-14.43 255.05-15.67 254.24-17.09 253.43-18.51 253.43-20.21L253.43-20.21Q253.43-22.31 254.29-24.1 255.14-25.88 256.58-27.2 258.02-28.52 259.88-29.27 261.74-30.03 263.79-30.03L263.79-30.03Q264.57-30.03 265.32-29.88 266.08-29.74 266.67-29.37 267.25-29 267.62-28.39 267.99-27.78 267.99-26.86Z" opacity="1" transform="matrix(1,0,0,1,0,0)" fill="#ffffff" class="undefined-text-1" data-fill-palette-color="secondary" id="text-1"></path></svg></g></svg></g></svg></g></svg></g><g><svg viewBox="0 0 244.43135999999998 244.43135999999998" height="244.43135999999998" width="244.43135999999998"><g><svg viewBox="0 0 244.43135999999998 244.43135999999998" height="244.43135999999998" width="244.43135999999998"><g transform="matrix(1,0,0,1,65.88440041946617,69.3006319539253)"><svg viewBox="0 0 112.66255916106765 105.83009609214938" height="105.83009609214938" width="112.66255916106765"><g><svg xmlns="http://www.w3.org/2000/svg" xmlns:xlink="http://www.w3.org/1999/xlink" version="1.1" x="0" y="0" viewBox="0.2930000126361847 4.557000160217285 99.41400146484375 93.38500213623047" enable-background="new 0 0 100 100" xml:space="preserve" height="105.83009609214938" width="112.66255916106765" class="icon-x-0" data-fill-palette-color="accent" id="x-0"><g fill="#ea9937" data-fill-palette-color="accent"><path d="M29.168 81.498V46.742l22.164-11.781c1.219-0.647 1.682-2.161 1.034-3.381-0.649-1.219-2.162-1.683-3.382-1.034L25.868 42.833c-0.864 0.46-1.341 0.792-1.606 1.729-0.172 0.547-0.094 1.376-0.094 1.861v35.074c-2.979 1.038-5.125 3.867-5.125 7.195v9.25h15.25v-9.25C34.293 85.365 32.146 82.536 29.168 81.498z" fill="#ffffff" data-fill-palette-color="accent"></path><path d="M20.168 48.79L17.5 47.332v6.533c0 3.068 0.955 5.986 2.668 8.634V48.79z" fill="#ffffff" data-fill-palette-color="accent"></path><path d="M49.999 65.094l-2.538-1.388-14.293-8.404v17.169c4.91 1.992 10.67 3.14 16.832 3.14 17.949 0 32.5-9.734 32.5-21.745v-6.534L52.537 63.706 49.999 65.094z" fill="#ffffff" data-fill-palette-color="accent"></path><path d="M50 4.557L0.293 32.002l0.209 0.115 20.001 10.931c0.805-2.468 2.602-3.442 3.487-3.913l23.116-12.287c0.937-0.498 1.991-0.761 3.049-0.761 2.407 0 4.608 1.32 5.743 3.452 1.68 3.166 0.473 7.108-2.689 8.789L33.167 48.98l16.832 10.188 49.559-27.084 0.149-0.082L50 4.557z" fill="#ffffff" data-fill-palette-color="accent"></path><path d="M50.066 30.098c0.06-0.002 0.12 0 0.18 0.001-0.031-0.001-0.061-0.012-0.092-0.012C50.125 30.087 50.096 30.097 50.066 30.098z" fill="#ffffff" data-fill-palette-color="accent"></path></g></svg></g></svg></g><path d="M31.372 92.676c-0.41 1.264-1.282 2.022-2.615 2.274-1.333 0.252-2.777 0.125-4.331-0.379v0c-2.232-0.724-4.408-2.023-6.529-3.897-2.121-1.874-3.728-3.931-4.821-6.17-1.093-2.239-1.345-4.267-0.755-6.084v0c0.258-0.797 0.616-1.372 1.073-1.726 0.457-0.354 0.935-0.45 1.436-0.288v0c0.467 0.152 0.954 0.502 1.459 1.052v0c0.281 0.324 0.393 0.571 0.338 0.743v0c-0.038 0.119-0.145 0.2-0.32 0.246v0c-1.059 0.37-1.745 1.039-2.059 2.006v0c-0.382 1.179-0.246 2.431 0.408 3.756 0.659 1.334 1.715 2.565 3.169 3.691 1.449 1.118 3.129 1.986 5.038 2.606v0c3.292 1.068 5.234 0.69 5.826-1.134v0c0.305-0.942 0.215-1.862-0.272-2.763-0.485-0.907-1.145-1.82-1.983-2.738v0c-0.073-0.089-0.168-0.2-0.285-0.333-0.115-0.139-0.19-0.255-0.226-0.346-0.036-0.092-0.034-0.197 0.004-0.315v0c0.028-0.086 0.104-0.141 0.229-0.166 0.118-0.027 0.249-0.017 0.394 0.029v0c0.856 0.278 1.735 0.999 2.638 2.166 0.9 1.173 1.575 2.49 2.025 3.953 0.458 1.458 0.511 2.731 0.159 3.817zM38.728 75.297c-0.66 1.113-1.827 1.174-3.5 0.182v0c-0.828-0.491-1.92-1.315-3.276-2.475v0l-7.403-6.224c-0.895-0.676-1.408-1.052-1.539-1.13v0c-0.399-0.237-0.662-0.248-0.789-0.033v0c-0.36 0.607 0.012 1.798 1.117 3.572v0c0.075 0.117 0.203 0.309 0.383 0.576 0.179 0.267 0.279 0.459 0.298 0.576 0.026 0.12 0.014 0.221-0.036 0.304v0c-0.032 0.054-0.111 0.079-0.238 0.076-0.127-0.003-0.256-0.043-0.387-0.121v0c-0.53-0.314-1.118-1.033-1.763-2.156-0.649-1.117-1.109-2.295-1.38-3.534-0.271-1.239-0.195-2.216 0.228-2.931v0c0.254-0.429 0.634-0.662 1.14-0.7 0.515-0.041 1.076 0.119 1.683 0.479v0c0.399 0.237 0.69 0.445 0.872 0.626v0l10.641 8.845c0.343 0.276 0.566 0.444 0.667 0.504v0c0.56 0.332 0.965 0.286 1.215-0.136v0c0.523-0.881 0.496-2.18-0.079-3.898-0.578-1.727-1.458-3.472-2.641-5.236-1.181-1.754-2.324-3.124-3.429-4.109v0l-2.583-2.28c-0.825-0.779-1.299-1.643-1.42-2.593-0.121-0.949-0.016-1.703 0.316-2.263v0c0.127-0.214 0.259-0.281 0.396-0.2v0c0.077 0.046 0.197 0.19 0.36 0.431 0.163 0.241 0.386 0.482 0.67 0.723v0c1.43 1.347 4.823 4.345 10.178 8.993v0l1.134 0.999c0.819 0.735 1.336 1.167 1.55 1.293v0c0.369 0.219 0.624 0.209 0.766-0.028v0c0.251-0.423 0.193-1.093-0.173-2.01-0.372-0.92-0.861-1.778-1.468-2.572v0c-0.196-0.334-0.263-0.554-0.199-0.662v0c0.092-0.155 0.257-0.162 0.495-0.02v0c0.292 0.173 0.529 0.35 0.711 0.53v0c0.843 0.749 1.513 1.649 2.009 2.7 0.493 1.041 0.788 2.057 0.884 3.048 0.097 0.991-0.028 1.778-0.374 2.361v0c-0.614 1.036-1.732 1.041-3.353 0.015v0c-0.683-0.477-1.558-1.213-2.625-2.208v0l-1.735-1.512-0.021 0.036c1.384 2.688 2.32 5.146 2.809 7.375 0.495 2.233 0.458 3.828-0.111 4.787zM51.554 56.764c-0.088 0.088-0.176 0.142-0.264 0.161-0.088 0.019-0.154 0.007-0.198-0.037v0c-0.064-0.064-0.142-0.269-0.235-0.617-0.083-0.348-0.288-0.754-0.615-1.219v0c-0.371-0.539-0.714-1.033-1.026-1.484-0.318-0.446-0.606-0.867-0.865-1.264v0c-2.449-3.541-4.174-6-5.176-7.376-1.002-1.376-1.787-2.324-2.354-2.843v0c-0.284-0.284-0.511-0.473-0.682-0.566-0.176-0.088-0.343-0.054-0.5 0.102v0c-0.196 0.196-0.282 0.609-0.258 1.24 0.019 0.636 0.116 1.302 0.292 1.998v0c0.083 0.308 0.154 0.575 0.212 0.8 0.054 0.23 0.088 0.406 0.102 0.529 0.005 0.122-0.025 0.215-0.088 0.279v0c-0.088 0.088-0.186 0.122-0.294 0.102-0.113-0.025-0.223-0.091-0.33-0.198v0c-0.416-0.416-0.76-1.232-1.033-2.446-0.268-1.209-0.37-2.428-0.305-3.657 0.065-1.219 0.35-2.08 0.855-2.583v0c0.416-0.416 0.869-0.54 1.358-0.373 0.494 0.162 1.091 0.593 1.79 1.294v0c0.958 0.96 2.048 2.469 3.27 4.526v0l0.066-0.066c-1.873-6.032-1.926-9.93-0.157-11.696v0c0.461-0.46 0.943-0.687 1.447-0.681 0.499 0.001 0.979 0.231 1.438 0.691v0c0.479 0.48 0.865 1.073 1.159 1.778 0.298 0.71 0.461 1.378 0.489 2.005 0.034 0.622-0.07 1.052-0.309 1.292v0c-0.152 0.152-0.304 0.107-0.455-0.133v0c-0.244-0.372-0.452-0.644-0.624-0.815v0c-0.528-0.529-1.076-0.51-1.644 0.057v0c-0.676 0.675-0.959 1.744-0.848 3.207 0.106 1.468 0.469 3.028 1.09 4.678 0.625 1.645 1.306 3.038 2.044 4.179v0c0.743 1.264 1.627 2.473 2.654 3.63v0c0.372 0.46 0.599 1.075 0.681 1.843 0.087 0.764 0.055 1.505-0.098 2.225-0.152 0.719-0.349 1.199-0.589 1.438zM56.694 19.43c-0.257 0.176-0.462 0.127-0.615-0.146v0l-1.365-2.991c-0.378-0.823-0.492-1.579-0.343-2.268 0.153-0.683 0.547-1.242 1.182-1.675v0l0.154-0.106c0.154-0.105 0.266-0.144 0.336-0.116 0.075 0.024 0.154 0.121 0.236 0.291v0l1.385 2.927c0.385 0.785 0.503 1.534 0.354 2.248-0.145 0.72-0.538 1.298-1.178 1.736v0zM68.627 41.746c-0.811 0.555-1.619 0.243-2.424-0.934v0c-0.398-0.583-0.785-1.308-1.16-2.175v0l-5.135-11.469c-0.356-0.729-0.587-1.171-0.692-1.325v0c-0.262-0.383-0.507-0.496-0.735-0.34v0c-0.303 0.207-0.505 0.702-0.608 1.484-0.102 0.783-0.052 1.868 0.15 3.255v0c0.108 0.379 0.085 0.621-0.069 0.727v0c-0.154 0.105-0.319 0.03-0.496-0.228v0c-0.418-0.611-0.679-1.582-0.782-2.911-0.104-1.329 0.007-2.621 0.333-3.874 0.32-1.25 0.825-2.111 1.516-2.583v0c0.789-0.539 1.568-0.246 2.337 0.88v0c0.363 0.531 0.765 1.284 1.204 2.258v0l5.563 12.408 0.263 0.55c0.191 0.28 0.404 0.34 0.638 0.18v0c0.303-0.207 0.502-0.708 0.597-1.502 0.095-0.794 0.048-1.873-0.139-3.238v0c-0.066-0.366-0.033-0.594 0.099-0.683v0c0.149-0.102 0.336 0.013 0.563 0.344v0c0.402 0.589 0.645 1.533 0.729 2.834 0.094 1.303-0.016 2.577-0.33 3.823-0.308 1.242-0.782 2.082-1.422 2.519zM82.806 33.947c-1.198 0.507-2.299 0.429-3.302-0.236-1.003-0.665-1.855-1.823-2.554-3.474v0c-0.977-2.307-1.423-4.904-1.337-7.789 0.086-2.885 0.611-5.472 1.574-7.759 0.963-2.287 2.184-3.744 3.663-4.37v0c1.109-0.47 2.168-0.339 3.176 0.391 1.015 0.728 1.86 1.888 2.534 3.482v0c0.904 2.135 1.349 4.631 1.333 7.486-0.016 2.856-0.471 5.446-1.365 7.772-0.888 2.323-2.129 3.822-3.722 4.497zM83.696 30.244c0.943-0.4 1.596-1.236 1.959-2.51 0.36-1.28 0.436-2.804 0.228-4.573-0.217-1.772-0.699-3.541-1.447-5.306v0c-1.371-3.238-2.895-4.502-4.572-3.792v0c-1.052 0.445-1.729 1.401-2.032 2.868-0.294 1.47-0.303 3.109-0.027 4.916 0.279 1.814 0.72 3.431 1.322 4.852v0c0.578 1.364 1.257 2.392 2.039 3.083 0.781 0.691 1.625 0.845 2.53 0.462zM102.447 27.655c-1.277 0.211-2.074-0.642-2.391-2.561v0c-0.157-0.949-0.229-2.316-0.216-4.1v0l-0.001-9.672c-0.059-1.12-0.101-1.755-0.126-1.905v0c-0.076-0.458-0.236-0.666-0.482-0.625v0c-0.697 0.115-1.368 1.167-2.014 3.154v0c-0.041 0.133-0.106 0.354-0.196 0.664-0.089 0.309-0.172 0.509-0.248 0.598-0.075 0.097-0.161 0.153-0.256 0.169v0c-0.061 0.01-0.132-0.034-0.212-0.133-0.08-0.099-0.132-0.224-0.156-0.374v0c-0.101-0.608 0.071-1.52 0.515-2.738 0.437-1.216 1.043-2.326 1.817-3.331 0.774-1.005 1.57-1.575 2.39-1.711v0c0.492-0.081 0.915 0.059 1.269 0.421 0.363 0.368 0.602 0.9 0.717 1.597v0c0.076 0.458 0.103 0.814 0.082 1.07v0l0.08 13.837c0.01 0.44 0.024 0.719 0.043 0.834v0c0.106 0.642 0.402 0.923 0.887 0.843v0c1.011-0.167 1.988-1.024 2.932-2.569 0.95-1.553 1.719-3.35 2.307-5.391 0.583-2.033 0.895-3.789 0.938-5.27v0l0.083-3.444c0.065-1.133 0.422-2.052 1.069-2.756 0.648-0.704 1.293-1.109 1.936-1.215v0c0.246-0.041 0.382 0.018 0.408 0.175v0c0.015 0.089-0.018 0.273-0.098 0.553-0.08 0.28-0.121 0.606-0.123 0.978v0c-0.11 1.962-0.221 6.488-0.331 13.578v0l-0.034 1.51c-0.035 1.1-0.033 1.773 0.008 2.02v0c0.07 0.423 0.242 0.612 0.515 0.567v0c0.485-0.08 0.96-0.555 1.426-1.425 0.465-0.877 0.807-1.803 1.024-2.78v0c0.129-0.365 0.255-0.558 0.378-0.578v0c0.178-0.029 0.289 0.093 0.334 0.366v0c0.055 0.335 0.073 0.63 0.052 0.886v0c-0.031 1.128-0.289 2.219-0.773 3.274-0.479 1.047-1.067 1.927-1.763 2.639-0.696 0.712-1.379 1.123-2.048 1.233v0c-1.188 0.197-1.912-0.655-2.17-2.556v0c-0.074-0.83-0.074-1.973 0-3.431v0l0.041-2.301-0.041 0.007c-1.166 2.789-2.445 5.088-3.837 6.897-1.39 1.816-2.635 2.814-3.735 2.996zM126.229 25.594c-0.952-0.075-1.746-0.402-2.381-0.98-0.642-0.578-1.035-1.307-1.18-2.187v0c-0.042-0.253 0.089-0.639 0.393-1.156 0.305-0.517 0.695-1.021 1.172-1.512v0c0.263-0.257 0.474-0.379 0.633-0.366v0c0.152 0.012 0.263 0.146 0.333 0.401v0c0.754 2.226 1.949 3.404 3.584 3.533v0c0.828 0.066 1.5-0.135 2.016-0.6 0.517-0.473 0.809-1.141 0.877-2.003v0c0.093-1.173-0.447-2.733-1.619-4.68v0l-0.863-1.464c-0.655-1.107-1.105-2.011-1.348-2.71-0.236-0.699-0.324-1.435-0.262-2.208v0c0.097-1.228 0.516-2.309 1.256-3.244 0.741-0.934 1.671-1.642 2.793-2.123 1.122-0.488 2.269-0.685 3.442-0.592v0c2.215 0.175 3.263 1.019 3.143 2.53v0c-0.044 0.552-0.288 1.092-0.732 1.619v0c-0.243 0.349-0.444 0.517-0.603 0.504v0c-0.179-0.014-0.334-0.21-0.463-0.588v0c-0.292-0.613-0.665-1.07-1.121-1.37-0.455-0.3-1.052-0.479-1.79-0.538v0c-0.863-0.068-1.574 0.108-2.136 0.529-0.561 0.421-0.869 0.983-0.925 1.687v0c-0.032 0.4 0.063 0.866 0.285 1.398 0.222 0.531 0.661 1.347 1.317 2.447v0l0.866 1.423c0.772 1.207 1.295 2.231 1.57 3.071 0.274 0.841 0.375 1.71 0.304 2.607v0c-0.09 1.139-0.549 2.241-1.377 3.308-0.827 1.059-1.886 1.896-3.177 2.508-1.284 0.614-2.62 0.865-4.007 0.756zM143.14 27.956c-0.265-0.081-0.369-0.211-0.315-0.39v0c0.037-0.119 0.182-0.357 0.437-0.713 0.254-0.356 0.651-0.987 1.19-1.893v0c1.342-2.267 3.307-6.138 5.896-11.613v0c0.522-1.063 0.852-1.816 0.988-2.259v0c0.118-0.384 0.088-0.603-0.091-0.658v0c-0.503-0.155-1.526 0.501-3.07 1.966v0c-0.234 0.218-0.436 0.405-0.608 0.563-0.178 0.155-0.317 0.265-0.416 0.328-0.108 0.068-0.205 0.089-0.291 0.063v0c-0.238-0.073-0.311-0.259-0.22-0.557v0c0.181-0.589 0.767-1.328 1.758-2.218 0.984-0.892 2.05-1.625 3.197-2.2 1.138-0.57 2.061-0.746 2.769-0.528v0c0.476 0.146 0.753 0.46 0.83 0.94 0.079 0.473 0.023 1.021-0.168 1.643v0c-0.299 0.973-1.119 2.802-2.46 5.489v0l0.04 0.013c2.097-1.969 4.176-3.419 6.236-4.35 2.062-0.937 3.686-1.224 4.87-0.86v0c1.237 0.38 1.588 1.441 1.054 3.181v0c-0.201 0.655-0.67 1.709-1.408 3.163v0l-2.655 4.995c-1.888 3.525-2.909 5.539-3.064 6.042v0c-0.063 0.205-0.066 0.403-0.009 0.595 0.048 0.196 0.192 0.331 0.43 0.404v0c0.794 0.244 2.083-0.685 3.866-2.787v0c0.186-0.298 0.381-0.415 0.586-0.352v0c0.179 0.055 0.214 0.258 0.106 0.608v0c-0.083 0.271-0.173 0.504-0.269 0.7v0c-0.531 0.995-1.264 1.86-2.199 2.593-0.935 0.733-1.887 1.248-2.854 1.545-0.963 0.305-1.768 0.358-2.416 0.158v0c-0.622-0.191-0.963-0.578-1.023-1.162-0.064-0.592-0.002-1.195 0.188-1.81v0c0.409-1.33 1.515-3.608 3.318-6.834v0c1.744-3.15 2.845-5.364 3.303-6.642v0c0.189-0.521 0.269-0.909 0.239-1.165-0.039-0.251-0.25-0.435-0.634-0.553v0c-0.913-0.281-2.082 0.022-3.506 0.909-1.418 0.889-2.81 2.083-4.176 3.583-1.368 1.506-2.406 2.939-3.114 4.299v0l-1.899 3.631c-0.408 0.715-1.101 1.295-2.078 1.74-0.977 0.445-1.763 0.577-2.358 0.393zM169.408 38.414c-1.194-0.714-1.868-1.739-2.021-3.073-0.159-1.338 0.244-2.814 1.211-4.429v0c1.176-1.966 2.907-3.786 5.191-5.46 2.278-1.678 4.608-2.821 6.988-3.429 2.381-0.608 4.325-0.461 5.834 0.442v0c1.378 0.825 1.568 2.071 0.569 3.74v0c-0.81 1.354-2.003 2.444-3.577 3.268-1.565 0.822-3.315 1.327-5.251 1.516-1.934 0.198-3.854 0.085-5.763-0.338v0c-0.857 1.431-1.243 2.604-1.16 3.516 0.083 0.913 0.576 1.639 1.479 2.179v0c0.956 0.572 2.015 0.791 3.177 0.655 1.152-0.133 2.326-0.564 3.521-1.293v0c0.17-0.108 0.328-0.191 0.475-0.248 0.141-0.061 0.28-0.05 0.417 0.032v0c0.208 0.124 0.218 0.344 0.029 0.658v0c-0.43 0.719-1.318 1.393-2.663 2.025-1.355 0.633-2.817 1-4.387 1.102-1.573 0.107-2.929-0.18-4.069-0.863zM175.122 29.31c0.689 0.412 1.573 0.607 2.652 0.583 1.073-0.027 2.126-0.305 3.159-0.832 1.043-0.529 1.882-1.326 2.519-2.389v0c0.743-1.241 0.675-2.125-0.204-2.651v0c-0.713-0.427-1.622-0.45-2.728-0.071-1.115 0.381-2.229 1.009-3.342 1.884-1.122 0.877-2.081 1.8-2.878 2.767v0c0.096 0.203 0.37 0.439 0.822 0.709zM182.336 47.482c-0.091-0.085-0.148-0.171-0.17-0.259-0.023-0.087-0.013-0.154 0.029-0.199v0c0.061-0.066 0.264-0.151 0.608-0.256 0.344-0.095 0.743-0.315 1.197-0.66v0c0.525-0.391 1.007-0.75 1.446-1.079 0.434-0.334 0.845-0.637 1.232-0.91v0c3.451-2.575 5.846-4.387 7.184-5.438 1.339-1.051 2.258-1.869 2.757-2.455v0c0.274-0.294 0.454-0.528 0.541-0.702 0.082-0.179 0.042-0.344-0.12-0.495v0c-0.203-0.189-0.619-0.26-1.249-0.213-0.635 0.042-1.297 0.163-1.985 0.363v0c-0.305 0.094-0.569 0.174-0.792 0.241-0.228 0.062-0.403 0.102-0.525 0.121-0.122 0.009-0.216-0.017-0.282-0.078v0c-0.091-0.085-0.129-0.182-0.113-0.29 0.021-0.113 0.083-0.226 0.186-0.337v0c0.401-0.43 1.204-0.804 2.407-1.12 1.199-0.311 2.413-0.457 3.644-0.437 1.22 0.021 2.091 0.274 2.612 0.761v0c0.43 0.401 0.571 0.849 0.422 1.344-0.144 0.5-0.554 1.112-1.229 1.836v0c-0.925 0.992-2.393 2.136-4.405 3.43v0l0.069 0.064c5.96-2.09 9.854-2.282 11.682-0.578v0c0.476 0.444 0.72 0.917 0.733 1.421 0.017 0.499-0.196 0.986-0.639 1.463v0c-0.463 0.496-1.041 0.903-1.735 1.221-0.699 0.323-1.361 0.51-1.986 0.562-0.62 0.056-1.054-0.032-1.302-0.263v0c-0.157-0.146-0.118-0.299 0.116-0.46v0c0.363-0.258 0.627-0.475 0.792-0.652v0c0.51-0.547 0.471-1.094-0.116-1.641v0c-0.699-0.651-1.777-0.895-3.236-0.732-1.464 0.159-3.009 0.578-4.635 1.257-1.622 0.684-2.989 1.415-4.103 2.194v0c-1.236 0.788-2.413 1.715-3.532 2.783v0c-0.447 0.388-1.053 0.637-1.818 0.747-0.76 0.115-1.502 0.109-2.226-0.018-0.724-0.126-1.211-0.305-1.459-0.536zM195.949 61.77c-0.826-1.345 0.052-2.811 2.635-4.398v0c2.394-1.472 5.104-2.41 8.129-2.815 3.028-0.415 5.856-0.195 8.485 0.659 2.626 0.848 4.569 2.298 5.83 4.351v0l0.245 0.398c4.159-1.362 7.396-2.23 9.709-2.604 2.311-0.364 4.459-0.287 6.444 0.232v0c1.308 0.358 2.317 0.79 3.026 1.296 0.709 0.506 1.546 1.28 2.511 2.32v0c0.429 0.46 0.759 0.772 0.991 0.938 0.232 0.166 0.372 0.287 0.419 0.364v0c0.112 0.183 0.062 0.339-0.15 0.47v0c-0.342 0.21-0.879 0.195-1.612-0.045v0c-0.395-0.114-0.7-0.26-0.915-0.437-0.214-0.177-0.402-0.363-0.561-0.557-0.15-0.192-0.273-0.332-0.368-0.419v0c-1.024-1.256-2.42-1.994-4.189-2.215v0c-1.355-0.142-3.054 0.041-5.097 0.549-2.04 0.514-5.474 1.622-10.303 3.323v0c-8.304 3-13.235 4.852-14.792 5.557v0c-0.207 0.086-0.44 0.209-0.7 0.369v0c-0.578 0.355-0.762 0.704-0.551 1.046v0c0.257 0.419 0.784 0.648 1.58 0.686 0.802 0.035 1.806-0.029 3.012-0.194v0c0.387-0.018 0.62 0.037 0.7 0.167v0c0.098 0.159 0.002 0.328-0.287 0.505v0l-0.721 0.334c-1.05 0.353-2.163 0.505-3.339 0.456-1.174-0.059-2.227-0.285-3.159-0.679-0.929-0.388-1.571-0.871-1.926-1.448v0c-0.518-0.843-0.079-1.694 1.319-2.553v0c0.525-0.323 1.188-0.657 1.99-1.005v0l3.89-1.464-0.027-0.044c-2.285 0.064-4.71-0.148-7.276-0.635-2.566-0.487-4.213-1.323-4.942-2.508zM200.328 61.638c0.453 0.737 1.545 1.232 3.277 1.484 1.735 0.258 3.686 0.294 5.854 0.107 2.17-0.197 4.011-0.54 5.522-1.03v0l2.907-0.921c0.039-1.113-0.208-2.103-0.741-2.97v0c-0.696-1.132-1.979-1.765-3.849-1.9-1.876-0.131-3.906 0.109-6.089 0.721-2.174 0.613-4.013 1.382-5.517 2.306v0c-0.655 0.402-1.102 0.779-1.341 1.129-0.243 0.344-0.251 0.703-0.022 1.074zM208.62 82.88c-0.347-0.89-0.398-1.747-0.154-2.57 0.241-0.829 0.726-1.501 1.454-2.015v0c0.21-0.148 0.614-0.198 1.213-0.149 0.599 0.049 1.222 0.181 1.87 0.397v0c0.346 0.125 0.548 0.262 0.606 0.41v0c0.055 0.142-0.017 0.3-0.217 0.474v0c-1.676 1.648-2.216 3.237-1.62 4.766v0c0.301 0.774 0.774 1.292 1.419 1.553 0.651 0.259 1.379 0.232 2.185-0.083v0c1.096-0.427 2.266-1.592 3.508-3.494v0l0.942-1.415c0.712-1.072 1.329-1.87 1.853-2.393 0.527-0.517 1.151-0.916 1.874-1.198v0c1.148-0.447 2.304-0.541 3.467-0.281 1.163 0.26 2.206 0.79 3.126 1.59 0.927 0.798 1.604 1.745 2.032 2.841v0c0.807 2.07 0.504 3.381-0.909 3.931v0c-0.516 0.201-1.108 0.216-1.776 0.046v0c-0.42-0.067-0.658-0.174-0.716-0.323v0c-0.065-0.168 0.044-0.392 0.328-0.674v0c0.425-0.53 0.674-1.065 0.745-1.605 0.072-0.54-0.027-1.156-0.296-1.846v0c-0.314-0.806-0.783-1.37-1.406-1.692-0.623-0.322-1.264-0.355-1.921-0.098v0c-0.374 0.146-0.752 0.434-1.134 0.865-0.382 0.431-0.925 1.181-1.63 2.251v0l-0.903 1.399c-0.75 1.221-1.444 2.137-2.083 2.75-0.638 0.613-1.376 1.082-2.214 1.409v0c-1.064 0.415-2.256 0.482-3.577 0.201-1.314-0.283-2.528-0.872-3.641-1.769-1.112-0.889-1.92-1.982-2.425-3.278zM9.23 158.204c-0.402-1.245-0.144-2.35 0.773-3.315 0.917-0.966 2.14-1.695 3.669-2.189v0c2.193-0.708 4.672-0.927 7.436-0.656 2.764 0.271 5.224 0.982 7.378 2.134 2.161 1.15 3.53 2.62 4.109 4.412v0c0.251 0.777 0.297 1.439 0.139 1.984-0.158 0.546-0.484 0.898-0.978 1.058v0c-0.461 0.149-1.05 0.15-1.767 0.003v0c-0.408-0.094-0.64-0.226-0.696-0.397v0c-0.038-0.119-0.002-0.243 0.109-0.373v0c0.632-0.903 0.794-1.831 0.486-2.787v0c-0.372-1.153-1.2-2.071-2.483-2.755-1.292-0.688-2.837-1.059-4.636-1.11-1.808-0.056-3.65 0.219-5.527 0.825v0c-3.227 1.042-4.552 2.46-3.973 4.251v0c0.298 0.922 0.9 1.604 1.806 2.046 0.906 0.442 1.956 0.787 3.149 1.034v0c0.105 0.032 0.243 0.067 0.416 0.106 0.173 0.039 0.3 0.085 0.383 0.138 0.083 0.053 0.143 0.139 0.182 0.258v0c0.028 0.086-0.002 0.175-0.088 0.269-0.082 0.085-0.195 0.15-0.34 0.197v0c-0.837 0.27-1.95 0.201-3.341-0.209-1.391-0.409-2.687-1.067-3.889-1.973-1.2-0.9-1.972-1.883-2.317-2.951zM18.715 180.345c-0.649-1.096-0.151-2.131 1.493-3.103v0c0.81-0.479 2.037-1.029 3.682-1.648v0l8.847-3.438c1.005-0.45 1.572-0.713 1.704-0.791v0c0.393-0.233 0.528-0.453 0.404-0.662v0c-0.356-0.602-1.557-0.844-3.603-0.727v0c-0.139 0.01-0.366 0.027-0.68 0.053-0.317 0.035-0.531 0.033-0.643-0.006-0.115-0.045-0.195-0.106-0.241-0.183v0c-0.028-0.048-0.011-0.126 0.053-0.236 0.058-0.106 0.152-0.199 0.283-0.276v0c0.518-0.307 1.413-0.474 2.683-0.502 1.27-0.028 2.503 0.131 3.697 0.478 1.198 0.353 2.005 0.88 2.421 1.583v0c0.247 0.417 0.268 0.855 0.065 1.313-0.213 0.456-0.617 0.86-1.213 1.212v0c-0.393 0.233-0.71 0.384-0.95 0.454v0l-12.637 5.006c-0.395 0.161-0.646 0.274-0.753 0.337v0c-0.548 0.324-0.699 0.695-0.452 1.112v0c0.508 0.858 1.64 1.446 3.397 1.765 1.757 0.319 3.674 0.384 5.749 0.194 2.075-0.19 3.797-0.53 5.164-1.018v0l3.173-1.142c1.065-0.348 2.034-0.347 2.91 0.004 0.878 0.341 1.479 0.786 1.803 1.334v0c0.123 0.208 0.12 0.352-0.012 0.429v0c-0.077 0.046-0.261 0.082-0.551 0.109-0.28 0.029-0.591 0.109-0.932 0.238v0c-1.835 0.596-6.019 2.102-12.551 4.52v0l-1.397 0.513c-1.021 0.355-1.635 0.594-1.844 0.717v0c-0.363 0.215-0.475 0.442-0.334 0.68v0c0.247 0.417 0.851 0.683 1.812 0.798 0.97 0.117 1.94 0.098 2.91-0.057v0c0.381-0.008 0.602 0.038 0.661 0.139v0c0.092 0.155 0.018 0.303-0.22 0.444v0c-0.286 0.169-0.547 0.292-0.784 0.367v0c-1.05 0.372-2.14 0.522-3.268 0.451-1.134-0.069-2.153-0.294-3.055-0.678-0.896-0.386-1.514-0.866-1.852-1.437v0c-0.603-1.019-0.078-1.981 1.574-2.886v0c0.731-0.368 1.776-0.777 3.134-1.227v0l2.123-0.774-0.026-0.045c-2.966-0.078-5.526-0.429-7.681-1.053-2.152-0.633-3.506-1.42-4.063-2.361zM35.111 203.474c-0.083-0.083-0.135-0.169-0.155-0.257-0.024-0.083-0.015-0.147 0.03-0.191v0c0.064-0.064 0.267-0.139 0.609-0.228 0.343-0.088 0.739-0.294 1.19-0.617v0c0.538-0.362 1.025-0.697 1.461-1.005 0.441-0.313 0.854-0.6 1.24-0.859v0c3.475-2.398 5.888-4.091 7.24-5.08 1.351-0.989 2.283-1.759 2.797-2.313v0c0.279-0.279 0.463-0.507 0.55-0.682 0.083-0.171 0.051-0.33-0.095-0.478v0c-0.196-0.196-0.604-0.281-1.226-0.257-0.622 0.024-1.275 0.12-1.96 0.287v0c-0.303 0.088-0.565 0.159-0.786 0.212-0.23 0.054-0.404 0.086-0.521 0.096-0.117 0.01-0.208-0.017-0.272-0.081v0c-0.083-0.083-0.115-0.179-0.095-0.286 0.02-0.108 0.083-0.215 0.191-0.323v0c0.411-0.411 1.211-0.751 2.401-1.021 1.184-0.264 2.381-0.364 3.59-0.3 1.199 0.064 2.046 0.343 2.54 0.837v0c0.406 0.406 0.529 0.852 0.367 1.336-0.162 0.485-0.585 1.069-1.27 1.754v0c-0.945 0.945-2.425 2.014-4.442 3.209v0l0.066 0.066c5.922-1.84 9.75-1.894 11.482-0.161v0c0.45 0.45 0.675 0.925 0.676 1.424 0 0.489-0.225 0.959-0.676 1.41v0c-0.47 0.47-1.052 0.852-1.747 1.145-0.7 0.289-1.356 0.45-1.968 0.484-0.607 0.029-1.03-0.076-1.27-0.316v0c-0.147-0.147-0.103-0.294 0.132-0.44v0c0.362-0.235 0.629-0.438 0.8-0.609v0c0.519-0.519 0.499-1.057-0.058-1.616v0c-0.666-0.666-1.718-0.945-3.157-0.837-1.439 0.108-2.968 0.467-4.589 1.079-1.62 0.612-2.986 1.282-4.096 2.012v0c-1.248 0.729-2.44 1.598-3.576 2.606v0c-0.45 0.362-1.05 0.585-1.799 0.668-0.749 0.093-1.478 0.064-2.187-0.088-0.71-0.152-1.182-0.345-1.417-0.581zM71.66 202.37c-0.246-0.168-0.271-0.37-0.076-0.606v0l2.253-2.321c0.616-0.644 1.265-1.017 1.948-1.12 0.677-0.107 1.33 0.054 1.958 0.483v0l0.146 0.1c0.149 0.102 0.225 0.192 0.23 0.27 0.005 0.079-0.058 0.183-0.188 0.312v0l-2.181 2.307c-0.583 0.633-1.227 1.01-1.931 1.133-0.714 0.124-1.382-0.027-2.005-0.453v0zM55.51 221.25c-0.8-0.547-0.806-1.397-0.017-2.552v0c0.395-0.577 0.922-1.189 1.583-1.836v0l8.655-8.798c0.548-0.581 0.873-0.946 0.974-1.095v0c0.258-0.377 0.272-0.644 0.044-0.8v0c-0.297-0.203-0.822-0.214-1.575-0.033-0.751 0.191-1.727 0.626-2.929 1.305v0c-0.304 0.236-0.533 0.302-0.688 0.197v0c-0.149-0.102-0.137-0.278 0.035-0.53v0c0.41-0.6 1.204-1.185 2.382-1.755 1.182-0.576 2.401-0.937 3.658-1.083 1.261-0.152 2.232 0.004 2.912 0.469v0c0.777 0.531 0.789 1.348 0.035 2.451v0c-0.359 0.526-0.907 1.162-1.644 1.907v0l-9.371 9.516-0.403 0.442c-0.191 0.28-0.176 0.496 0.047 0.648v0c0.303 0.207 0.834 0.209 1.593 0.007 0.761-0.193 1.733-0.622 2.918-1.288v0c0.313-0.188 0.533-0.24 0.658-0.154v0c0.149 0.102 0.112 0.315-0.111 0.641v0c-0.395 0.577-1.173 1.139-2.335 1.687-1.162 0.547-2.366 0.898-3.612 1.052-1.25 0.16-2.186 0.027-2.809-0.398zM73.854 231.319c-1.173-0.496-1.867-1.326-2.08-2.491-0.223-1.161 0.008-2.552 0.692-4.171v0c0.957-2.263 2.483-4.354 4.578-6.271 2.093-1.911 4.273-3.308 6.539-4.191 2.27-0.889 4.131-1.027 5.585-0.412v0c1.09 0.461 1.725 1.297 1.905 2.507 0.177 1.217-0.065 2.607-0.725 4.169v0c-0.887 2.098-2.341 4.117-4.364 6.057-2.025 1.947-4.161 3.4-6.408 4.359-2.253 0.956-4.16 1.105-5.722 0.444zM77.069 229.421c0.924 0.391 1.961 0.277 3.109-0.343 1.155-0.617 2.283-1.605 3.384-2.966 1.101-1.361 2.018-2.908 2.752-4.642v0c1.347-3.188 1.196-5.131-0.456-5.829v0c-1.033-0.437-2.169-0.256-3.408 0.544-1.243 0.79-2.405 1.903-3.486 3.339-1.087 1.434-1.926 2.849-2.516 4.246v0c-0.566 1.339-0.825 2.522-0.779 3.549 0.041 1.024 0.507 1.725 1.4 2.102zM98.81 239.126c-1.257-0.207-1.73-1.253-1.419-3.138v0c0.153-0.929 0.52-2.222 1.102-3.881v0l3.048-8.989c0.301-1.059 0.463-1.663 0.488-1.814v0c0.074-0.451-0.008-0.696-0.247-0.735v0c-0.69-0.114-1.647 0.651-2.872 2.295v0c-0.082 0.113-0.214 0.298-0.396 0.555-0.177 0.265-0.316 0.428-0.418 0.489-0.108 0.059-0.206 0.082-0.295 0.067v0c-0.055-0.009-0.104-0.073-0.147-0.192-0.045-0.113-0.055-0.244-0.03-0.395v0c0.098-0.594 0.544-1.387 1.339-2.378 0.795-0.992 1.709-1.834 2.742-2.526 1.04-0.692 1.963-0.971 2.768-0.839v0c0.478 0.079 0.827 0.343 1.048 0.794 0.213 0.456 0.263 1.025 0.15 1.708v0c-0.074 0.451-0.162 0.791-0.262 1.02v0l-4.282 12.9c-0.13 0.406-0.205 0.671-0.226 0.794v0c-0.103 0.628 0.084 0.982 0.562 1.061v0c0.983 0.162 2.162-0.328 3.536-1.47 1.374-1.142 2.654-2.569 3.841-4.281 1.187-1.713 2.033-3.25 2.537-4.612v0l1.164-3.165c0.417-1.04 1.041-1.782 1.871-2.228 0.825-0.453 1.552-0.628 2.181-0.525v0c0.239 0.039 0.346 0.134 0.321 0.285v0c-0.015 0.089-0.105 0.253-0.27 0.492-0.158 0.234-0.297 0.523-0.417 0.868v0c-0.723 1.789-2.255 5.963-4.598 12.522v0l-0.505 1.401c-0.384 1.01-0.595 1.635-0.634 1.873v0c-0.069 0.417 0.034 0.647 0.307 0.693v0c0.478 0.079 1.07-0.213 1.775-0.876 0.713-0.668 1.322-1.424 1.825-2.267v0c0.238-0.297 0.416-0.437 0.532-0.417v0c0.178 0.029 0.244 0.18 0.199 0.453v0c-0.054 0.328-0.128 0.607-0.222 0.837v0c-0.389 1.044-0.974 1.976-1.755 2.794-0.781 0.825-1.609 1.461-2.481 1.907-0.872 0.439-1.636 0.604-2.292 0.495v0c-1.168-0.192-1.568-1.212-1.2-3.059v0c0.187-0.797 0.545-1.86 1.072-3.191v0l0.771-2.125-0.051-0.008c-1.966 2.223-3.879 3.959-5.741 5.21-1.867 1.243-3.34 1.775-4.419 1.598zM128.204 241.381c-0.938 0.075-1.759-0.12-2.463-0.585-0.71-0.457-1.202-1.102-1.477-1.933v0c-0.081-0.237-0.016-0.631 0.197-1.183 0.213-0.545 0.513-1.093 0.9-1.644v0c0.22-0.288 0.406-0.439 0.557-0.451v0c0.152-0.012 0.282 0.099 0.391 0.333v0c1.073 2.046 2.41 3.005 4.011 2.877v0c0.821-0.066 1.446-0.369 1.875-0.91 0.43-0.534 0.61-1.226 0.543-2.074v0c-0.091-1.145-0.862-2.573-2.311-4.284v0l-1.061-1.29c-0.807-0.97-1.381-1.775-1.724-2.414-0.336-0.64-0.534-1.339-0.595-2.098v0c-0.096-1.207 0.141-2.32 0.713-3.338 0.571-1.025 1.365-1.859 2.383-2.503 1.011-0.643 2.089-1.011 3.235-1.102v0c2.18-0.174 3.33 0.48 3.448 1.964v0c0.044 0.545-0.11 1.106-0.46 1.683v0c-0.185 0.376-0.354 0.57-0.505 0.582v0c-0.179 0.014-0.359-0.152-0.54-0.499v0c-0.377-0.553-0.811-0.939-1.3-1.156-0.49-0.218-1.097-0.298-1.822-0.24v0c-0.849 0.068-1.51 0.35-1.984 0.846-0.482 0.49-0.695 1.083-0.639 1.78v0c0.031 0.393 0.198 0.828 0.5 1.303 0.296 0.483 0.847 1.21 1.653 2.181v0l1.057 1.238c0.938 1.05 1.604 1.962 2 2.736 0.395 0.774 0.628 1.599 0.698 2.475v0c0.089 1.118-0.184 2.258-0.821 3.42-0.636 1.162-1.534 2.14-2.692 2.933-1.152 0.793-2.407 1.244-3.767 1.353zM150.218 238.012c-0.258 0.08-0.413 0.033-0.467-0.138v0c-0.037-0.119-0.053-0.393-0.047-0.822 0.012-0.431-0.015-1.162-0.079-2.192v0c-0.161-2.587-0.703-6.817-1.626-12.69v0c-0.167-1.151-0.318-1.945-0.452-2.381v0c-0.116-0.377-0.261-0.539-0.433-0.486v0c-0.496 0.153-0.968 1.252-1.416 3.295v0c-0.066 0.303-0.125 0.568-0.179 0.794-0.062 0.222-0.115 0.39-0.159 0.505-0.046 0.108-0.112 0.176-0.198 0.203v0c-0.231 0.071-0.392-0.038-0.482-0.329v0c-0.18-0.582-0.117-1.507 0.186-2.775 0.311-1.269 0.772-2.451 1.383-3.545 0.618-1.096 1.274-1.752 1.968-1.966v0c0.463-0.143 0.86-0.041 1.192 0.306 0.323 0.342 0.578 0.818 0.767 1.426v0c0.296 0.959 0.641 2.899 1.036 5.819v0l0.049-0.015c0.604-2.758 1.487-5.085 2.648-6.979 1.159-1.901 2.317-3.03 3.475-3.387v0c1.217-0.376 2.09 0.293 2.619 2.006v0c0.196 0.635 0.398 1.746 0.605 3.333v0l0.609 5.528c0.414 3.9 0.698 6.098 0.852 6.594v0c0.063 0.205 0.169 0.372 0.317 0.499 0.148 0.128 0.338 0.156 0.569 0.085v0c0.787-0.243 1.319-1.711 1.596-4.404v0c-0.012-0.344 0.084-0.548 0.29-0.611v0c0.172-0.053 0.312 0.096 0.42 0.446v0c0.08 0.258 0.138 0.493 0.175 0.707v0c0.118 1.108 0 2.217-0.354 3.325-0.36 1.111-0.847 2.054-1.462 2.831-0.615 0.777-1.243 1.264-1.885 1.462v0c-0.608 0.188-1.1 0.061-1.476-0.381-0.369-0.444-0.647-0.97-0.835-1.578v0c-0.402-1.303-0.766-3.759-1.09-7.368v0c-0.327-3.521-0.657-5.929-0.991-7.224v0c-0.135-0.531-0.285-0.886-0.45-1.067-0.167-0.188-0.438-0.223-0.815-0.107v0c-0.899 0.278-1.682 1.168-2.349 2.67-0.658 1.507-1.127 3.249-1.407 5.226-0.276 1.969-0.327 3.705-0.152 5.209v0l0.473 3.994c0.061 0.807-0.183 1.661-0.731 2.562-0.548 0.901-1.113 1.441-1.694 1.62zM181.472 225.267c-1.169 0.702-2.37 0.812-3.603 0.333-1.23-0.489-2.32-1.526-3.27-3.111v0c-1.154-1.923-1.926-4.26-2.318-7.012-0.401-2.754-0.311-5.302 0.269-7.645 0.571-2.344 1.599-3.962 3.082-4.852v0c1.353-0.812 2.521-0.399 3.504 1.24v0c0.798 1.33 1.188 2.867 1.17 4.613-0.015 1.737-0.385 3.488-1.11 5.255-0.734 1.764-1.726 3.372-2.977 4.825v0c0.844 1.407 1.681 2.285 2.512 2.634 0.831 0.349 1.689 0.258 2.573-0.272v0c0.932-0.559 1.611-1.37 2.039-2.434 0.418-1.066 0.588-2.282 0.511-3.649v0c-0.013-0.21-0.011-0.389 0.006-0.536 0.013-0.153 0.085-0.269 0.215-0.347v0c0.208-0.125 0.406-0.03 0.595 0.285v0c0.42 0.7 0.592 1.78 0.515 3.239-0.08 1.468-0.439 2.907-1.08 4.316-0.64 1.409-1.518 2.448-2.633 3.118zM176.235 216.095c0.677-0.406 1.254-1.079 1.731-2.02 0.477-0.94 0.728-1.982 0.752-3.126 0.018-1.141-0.287-2.233-0.914-3.278v0c-0.734-1.223-1.528-1.578-2.382-1.065v0c-0.706 0.424-1.149 1.206-1.329 2.347-0.183 1.135-0.156 2.39 0.08 3.766 0.242 1.372 0.599 2.627 1.072 3.764v0c0.215 0.008 0.545-0.121 0.99-0.388zM198.401 213.148c-0.086 0.08-0.173 0.129-0.262 0.145-0.084 0.022-0.147 0.01-0.19-0.035v0c-0.061-0.066-0.131-0.271-0.207-0.617-0.077-0.345-0.269-0.748-0.577-1.209v0c-0.344-0.55-0.663-1.048-0.956-1.494-0.298-0.451-0.571-0.874-0.817-1.269v0c-2.281-3.553-3.893-6.021-4.836-7.404-0.943-1.383-1.682-2.341-2.218-2.873v0c-0.27-0.288-0.491-0.479-0.664-0.573-0.168-0.089-0.328-0.062-0.48 0.08v0c-0.202 0.189-0.301 0.595-0.298 1.216 0.004 0.622 0.077 1.278 0.221 1.969v0c0.078 0.306 0.14 0.57 0.186 0.792 0.046 0.232 0.072 0.406 0.078 0.524 0.006 0.118-0.024 0.207-0.09 0.269v0c-0.086 0.08-0.182 0.109-0.289 0.086-0.107-0.023-0.212-0.09-0.317-0.202v0c-0.397-0.425-0.71-1.236-0.939-2.433-0.225-1.193-0.285-2.392-0.181-3.598 0.104-1.196 0.411-2.033 0.921-2.511v0c0.42-0.392 0.869-0.5 1.348-0.322 0.479 0.178 1.049 0.62 1.711 1.328v0c0.913 0.976 1.932 2.491 3.058 4.546v0l0.068-0.064c-1.642-5.98-1.568-9.807 0.222-11.481v0c0.465-0.435 0.947-0.644 1.446-0.628 0.489 0.016 0.951 0.257 1.387 0.722v0c0.454 0.485 0.816 1.08 1.086 1.785 0.265 0.709 0.405 1.37 0.419 1.983 0.009 0.608-0.11 1.027-0.358 1.258v0c-0.152 0.142-0.297 0.093-0.436-0.146v0c-0.223-0.37-0.417-0.643-0.583-0.82v0c-0.501-0.536-1.04-0.534-1.616 0.004v0c-0.687 0.643-1.001 1.685-0.942 3.128 0.06 1.442 0.368 2.982 0.926 4.622 0.557 1.64 1.182 3.027 1.874 4.161v0c0.687 1.272 1.516 2.492 2.485 3.66v0c0.347 0.462 0.55 1.069 0.608 1.82 0.068 0.752 0.014 1.479-0.161 2.184-0.175 0.704-0.384 1.17-0.627 1.397zM215.955 193.954c-0.81 1.322-2.484 1.205-5.022-0.35v0c-2.349-1.44-4.376-3.397-6.082-5.872-1.704-2.465-2.769-5.038-3.196-7.72-0.421-2.677-0.013-5.025 1.225-7.043v0l0.233-0.381c-3.04-3.041-5.236-5.491-6.588-7.351-1.352-1.86-2.242-3.773-2.668-5.739v0c-0.269-1.31-0.339-2.388-0.209-3.234 0.126-0.84 0.428-1.917 0.908-3.231v0c0.214-0.575 0.343-1.003 0.387-1.285 0.045-0.273 0.092-0.447 0.138-0.524v0c0.112-0.183 0.271-0.211 0.478-0.085v0c0.336 0.206 0.559 0.684 0.669 1.433v0c0.08 0.398 0.09 0.733 0.029 1.005-0.057 0.265-0.137 0.509-0.24 0.729-0.097 0.225-0.166 0.397-0.208 0.518v0c-0.638 1.452-0.662 3-0.071 4.645v0c0.476 1.25 1.392 2.656 2.748 4.218 1.356 1.562 3.853 4.079 7.489 7.55v0c6.318 5.944 10.134 9.44 11.448 10.489v0c0.159 0.138 0.368 0.287 0.628 0.446v0c0.572 0.351 0.962 0.358 1.168 0.022v0c0.253-0.413 0.215-0.98-0.114-1.702-0.327-0.712-0.828-1.563-1.503-2.554v0c-0.189-0.327-0.244-0.556-0.165-0.685v0c0.094-0.153 0.283-0.143 0.566 0.03v0l0.615 0.487c0.776 0.76 1.402 1.667 1.876 2.721 0.474 1.054 0.749 2.075 0.826 3.064 0.07 0.985-0.07 1.763-0.421 2.335v0c-0.506 0.826-1.444 0.82-2.814-0.019v0c-0.519-0.318-1.111-0.75-1.775-1.296v0l-3.001-2.753-0.022 0.036c1.063 1.975 1.952 4.193 2.668 6.653 0.713 2.467 0.712 4.281 0 5.443zM213.895 190.183c0.441-0.72 0.388-1.897-0.16-3.533-0.548-1.635-1.387-3.359-2.517-5.172-1.129-1.813-2.245-3.272-3.345-4.377v0l-2.099-2.139c-0.993 0.455-1.752 1.11-2.276 1.966v0c-0.68 1.109-0.662 2.517 0.054 4.223 0.716 1.706 1.829 3.374 3.337 5.005 1.505 1.637 2.992 2.906 4.462 3.807v0c0.649 0.398 1.179 0.626 1.591 0.683 0.411 0.057 0.729-0.097 0.953-0.463zM230.4 169.075c-0.34 0.878-0.872 1.533-1.596 1.966-0.72 0.441-1.514 0.605-2.383 0.491v0c-0.248-0.029-0.575-0.26-0.98-0.691-0.398-0.429-0.762-0.937-1.091-1.524v0c-0.164-0.323-0.219-0.556-0.164-0.698v0c0.055-0.142 0.212-0.211 0.47-0.208v0c2.309-0.079 3.753-0.867 4.333-2.364v0c0.297-0.768 0.295-1.463-0.006-2.084-0.295-0.619-0.839-1.082-1.633-1.39v0c-1.072-0.415-2.692-0.341-4.862 0.223v0l-1.623 0.396c-1.224 0.306-2.199 0.474-2.923 0.505-0.722 0.025-1.438-0.1-2.149-0.375v0c-1.13-0.437-2.029-1.134-2.698-2.09-0.675-0.959-1.082-2.037-1.22-3.233-0.141-1.19-0.004-2.321 0.411-3.393v0c0.789-2.04 1.878-2.791 3.266-2.254v0c0.51 0.197 0.949 0.579 1.317 1.144v0c0.258 0.33 0.36 0.566 0.304 0.708v0c-0.065 0.168-0.293 0.258-0.683 0.27v0c-0.662 0.1-1.198 0.323-1.606 0.67-0.409 0.347-0.744 0.859-1.007 1.536v0c-0.307 0.794-0.34 1.512-0.099 2.155 0.232 0.647 0.674 1.096 1.326 1.348v0c0.368 0.142 0.832 0.181 1.392 0.116 0.564-0.056 1.458-0.237 2.682-0.543v0l1.574-0.415c1.353-0.389 2.464-0.594 3.333-0.614 0.869-0.02 1.713 0.129 2.532 0.446v0c1.046 0.405 1.954 1.146 2.725 2.223 0.771 1.078 1.262 2.31 1.474 3.699 0.215 1.382 0.076 2.709-0.416 3.98zM0 121.906c0-8.523 6.909-15.432 15.432-15.432 8.523 0 15.432 6.909 15.433 15.432 0 8.523-6.909 15.432-15.433 15.432-8.523 0-15.432-6.909-15.432-15.432zM212.686 121.906c0-8.523 6.909-15.432 15.433-15.432 8.523 0 15.432 6.909 15.432 15.432 0 8.523-6.909 15.432-15.432 15.432-8.523 0-15.432-6.909-15.433-15.432z" fill="#ffffff" data-fill-palette-color="accent"></path></svg></g></svg></g></svg></g></svg><rect width="395.52" height="141.3275499324646" fill="none" stroke="none" visibility="hidden"></rect></g></svg></g></svg>